<svg xmlns="http://www.w3.org/2000/svg" width="37.461" height="37.567" viewBox="0 0 37.461 37.567">
  <g id="Group_19531" data-name="Group 19531" transform="translate(-0.332)">
    <g id="Group_19532" data-name="Group 19532" transform="translate(0.332)">
      <path id="Path_15006" data-name="Path 15006" d="M37.793,163.321a16.811,16.811,0,0,1-2.452,3.208c-1.426,1.75-2.9,3.458-4.336,5.2a6.371,6.371,0,0,1-5.115,2.4c-3.161.021-6.322.033-9.482-.009a3.186,3.186,0,0,0-2.422,1.293.355.355,0,0,0-.031.266,2.281,2.281,0,0,1-.692,2.2c-1.111,1.081-2.208,2.176-3.314,3.261a5.249,5.249,0,0,1-.423.339H9.085c-.218-.191-.449-.37-.653-.575q-3.86-3.88-7.713-7.767c-.513-.517-.515-.861-.011-1.368,1.067-1.073,2.141-2.139,3.2-3.217a2.368,2.368,0,0,1,1.865-.771.441.441,0,0,0,.338-.178c2.433-4.267,7.749-5.315,11.57-3.846a1.73,1.73,0,0,0,.6.1q3.753.01,7.506,0a3.221,3.221,0,0,1,2.717,1.171,1.125,1.125,0,0,1,.154-.333c1.356-1.405,2.72-2.8,4.079-4.2a2.925,2.925,0,0,1,4.988.977.444.444,0,0,0,.063.086ZM13.048,174.266c.087-.083.189-.169.279-.267a4.154,4.154,0,0,1,3.307-1.336c2.989.04,5.979,0,8.968.017a5.309,5.309,0,0,0,4.406-2.033c1.978-2.432,4.016-4.815,6.024-7.223a1.467,1.467,0,1,0-2.181-1.964q-2.311,2.373-4.615,4.754a.6.6,0,0,0-.176.368,2.958,2.958,0,0,1-3.16,3.158q-2.745.007-5.491,0a1.983,1.983,0,0,1-.471-.045A.718.718,0,0,1,20,168.3a2.9,2.9,0,0,1,.474-.025q2.709,0,5.418,0a2.972,2.972,0,0,0,.546-.04,1.45,1.45,0,0,0,1.133-1.666,1.477,1.477,0,0,0-1.614-1.229c-2.611,0-5.223,0-7.834-.009a2.708,2.708,0,0,1-.885-.167,8.469,8.469,0,0,0-7.011.421A6.83,6.83,0,0,0,7.3,168.514l5.748,5.752m-3.556,5.453c.873-.92,1.793-1.9,2.721-2.862a.779.779,0,0,0,0-1.289q-1.627-1.632-3.258-3.259-1.384-1.383-2.769-2.764a.735.735,0,0,0-1.178,0c-.262.255-.516.518-.775.776-.707.7-1.415,1.4-2.155,2.14Z" transform="translate(-0.332 -143.915)" fill="#ca0e00"/>
      <path id="Path_15007" data-name="Path 15007" d="M150.469,0c.452.093.911.163,1.355.283a8.055,8.055,0,1,1-3.065-.219A1.867,1.867,0,0,0,149,0Zm-.74,14.664a6.6,6.6,0,1,0-6.589-6.622,6.591,6.591,0,0,0,6.589,6.622" transform="translate(-127.874)" fill="#ca0e00"/>
      <path id="Path_15011" data-name="Path 15011" d="M165.072,248.213a.715.715,0,0,1,.728.7.731.731,0,0,1-.722.755.752.752,0,0,1-.737-.749.735.735,0,0,1,.731-.71" transform="translate(-148.327 -223.978)" fill="#ca0e00"/>
      <path id="Path_15012" data-name="Path 15012" d="M201.224,31.624c0-.268-.009-.549,0-.828a.729.729,0,1,1,1.458,0c.012.279,0,.558,0,.771.36.244.689.433.977.67a.713.713,0,0,1,.14,1.089.751.751,0,0,1-1.079.029,2.135,2.135,0,0,0-.562-.327.726.726,0,0,0-.926.542.733.733,0,0,0,.625.874c.157.022.316.025.472.054a2.186,2.186,0,0,1,.614,4.11.392.392,0,0,0-.266.443,3.28,3.28,0,0,1,0,.585.711.711,0,0,1-.725.677.656.656,0,0,1-.714-.671,1.108,1.108,0,0,0-.755-1.311,1.858,1.858,0,0,1-.586-.541.7.7,0,0,1,.047-1.017.723.723,0,0,1,1.022.029,4.114,4.114,0,0,0,.527.447.738.738,0,0,0,.919-.033.672.672,0,0,0,.239-.755.756.756,0,0,0-.741-.546,2.2,2.2,0,0,1-.805-4.225c.032-.017.063-.037.115-.069" transform="translate(-180.239 -27.123)" fill="#ca0e00"/>
    </g>
  </g>
</svg>
