<svg id="Group_19416" data-name="Group 19416" xmlns="http://www.w3.org/2000/svg" width="38" height="38" viewBox="0 0 38 38">
  <g id="Group_19419" data-name="Group 19419">
    <path id="Path_14935" data-name="Path 14935" d="M16.031,0a4.54,4.54,0,0,1,2.222,1.448c1.874,1.9,3.779,3.774,5.657,5.672a2.94,2.94,0,0,1-.888,4.854,4.322,4.322,0,0,1-1.552.21.792.792,0,0,0-.678.237,6.945,6.945,0,0,1-.625.551,2.323,2.323,0,0,1,.7,3.619q1.826,1.6,3.654,3.192l7.826,6.825c1.285,1.121,2.557,2.258,3.861,3.356A5.038,5.038,0,0,1,38,33.027v1.039c-.025.093-.054.185-.074.28a4.455,4.455,0,0,1-2.9,3.39,9.43,9.43,0,0,1-.958.264H32.953c-.019-.016-.035-.042-.056-.045a4.732,4.732,0,0,1-2.936-1.718Q25.349,30.909,20.713,25.6L16.6,20.876a2.328,2.328,0,0,1-3.629-.723,5.513,5.513,0,0,1-.519.61.731.731,0,0,0-.253.742,2.784,2.784,0,0,1-.849,2.462A2.962,2.962,0,0,1,7.1,23.885c-1.877-1.865-3.734-3.75-5.619-5.607A4.6,4.6,0,0,1,0,16.031v-.891a.559.559,0,0,0,.049-.1,2.952,2.952,0,0,1,3.525-2.389.48.48,0,0,0,.34-.139q4.308-4.293,8.6-8.6a.544.544,0,0,0,.123-.41A2.967,2.967,0,0,1,14.174.356,7.862,7.862,0,0,1,15.141,0ZM11.341,19.675l8.311-8.309-6.19-6.182L5.156,13.491l6.185,6.184M25.57,28.921l3.355-3.331-9.066-7.908-2.174,2.181,7.885,9.058m3,3.46c.961,1.1,1.9,2.2,2.871,3.264a2.7,2.7,0,0,0,1.948.864,3.009,3.009,0,0,0,2.9-1.855,2.911,2.911,0,0,0-.78-3.311c-.994-.889-2.007-1.758-3.013-2.634a.968.968,0,0,0-.15-.1l-3.777,3.766M15.756,1.469a1.586,1.586,0,0,0-1.543.893,1.436,1.436,0,0,0,.3,1.644q3.151,3.166,6.318,6.315a1.478,1.478,0,0,0,2.086-2.093Q19.768,5.057,16.589,1.92a2.934,2.934,0,0,0-.833-.451M3.181,14.077a1.535,1.535,0,0,0-1.557.88A1.379,1.379,0,0,0,1.913,16.6q3.146,3.171,6.316,6.317a1.478,1.478,0,0,0,2.093-2.087Q7.176,17.656,4,14.517a2.8,2.8,0,0,0-.818-.44M14.3,19.126a.759.759,0,0,0,.452.787.727.727,0,0,0,.847-.19q2.061-2.058,4.117-4.121a.737.737,0,0,0,.036-1.089.748.748,0,0,0-1.092.053q-2.052,2.04-4.089,4.1a1.817,1.817,0,0,0-.272.463M26.631,30.139l.906,1.039,3.632-3.63-1.035-.9-3.5,3.5" fill="#ca0e00"/>
    <path id="Path_14938" data-name="Path 14938" d="M0,300.86a11.653,11.653,0,0,1,.4-1.143,3.63,3.63,0,0,1,1.54-1.6,7.241,7.241,0,0,1-.372-.925,2.575,2.575,0,0,1,2.5-3.226q6.307-.017,12.614,0a2.588,2.588,0,0,1,2.263,3.887c-.041.074-.08.149-.124.232.217.158.436.3.632.464a3.937,3.937,0,0,1,1.3,3.679c-.025.229-.319.428-.489.641H0v-2m1.509.5H19.281a2.2,2.2,0,0,0-2.244-2.2q-4.838-.009-9.676,0c-1.236,0-2.472-.013-3.707,0a2.175,2.175,0,0,0-2.145,2.2m8.859-3.687h.259c1.977,0,3.954,0,5.931,0a1.145,1.145,0,0,0,1.147-.657,1.108,1.108,0,0,0-1.083-1.571q-4.226-.007-8.452,0c-1.334,0-2.669,0-4,0a1.115,1.115,0,1,0,.01,2.224c2.063.005,4.127,0,6.19,0" transform="translate(0 -264.864)" fill="#ca0e00"/>
    <path id="Path_14949" data-name="Path 14949" d="M100.756,74.875c.19.144.463.254.557.45a1.423,1.423,0,0,1,.008.732c-.011.093-.127.177-.2.256q-1.467,1.471-2.936,2.94a.8.8,0,0,1-.864.277.74.74,0,0,1-.226-1.286c.947-.96,1.9-1.909,2.857-2.861a1.645,1.645,0,0,1,.269-.254,5.549,5.549,0,0,1,.539-.254" transform="translate(-87.233 -67.465)" fill="#ca0e00"/>
    <path id="Path_14950" data-name="Path 14950" d="M76.376,130.075a.717.717,0,0,1-.743-.711.732.732,0,0,1,.74-.757.751.751,0,0,1,.735.735.739.739,0,0,1-.731.733" transform="translate(-68.148 -115.88)" fill="#ca0e00"/>
  </g>
</svg>
