<svg xmlns="http://www.w3.org/2000/svg" width="23.106" height="23.146" viewBox="0 0 23.106 23.146">
  <path id="Icon_feather-phone-call" data-name="Icon feather-phone-call" d="M16.175,5.521a5.027,5.027,0,0,1,3.971,3.971M16.175,1.5a9.048,9.048,0,0,1,7.993,7.983m-1.005,8.023v3.016a2.011,2.011,0,0,1-2.192,2.011,19.9,19.9,0,0,1-8.676-3.086,19.6,19.6,0,0,1-6.032-6.032A19.9,19.9,0,0,1,3.176,4.7a2.011,2.011,0,0,1,2-2.192H8.193A2.011,2.011,0,0,1,10.2,4.235a12.909,12.909,0,0,0,.7,2.825,2.011,2.011,0,0,1-.452,2.121L9.178,10.458A16.086,16.086,0,0,0,15.21,16.49l1.277-1.277a2.011,2.011,0,0,1,2.121-.452,12.909,12.909,0,0,0,2.825.7A2.011,2.011,0,0,1,23.162,17.505Z" transform="translate(-2.167 -0.396)" fill="none" stroke="#ca0e00" stroke-linecap="round" stroke-linejoin="round" stroke-width="2"/>
</svg>
