<svg xmlns="http://www.w3.org/2000/svg" width="9.999" height="16.784" viewBox="0 0 9.999 16.784">
  <path id="_0166e76c8b03227d1a839e7b916e2413" data-name="0166e76c8b03227d1a839e7b916e2413" d="M15.337,1.561a21.7,21.7,0,0,0-2.355-.12A3.973,3.973,0,0,0,8.753,5.775V7.59H6.563a.387.387,0,0,0-.388.387v2.986a.387.387,0,0,0,.387.388H8.753v5.985a.387.387,0,0,0,.387.388h3.085a.387.387,0,0,0,.388-.387V11.351H14.8a.388.388,0,0,0,.385-.338l.385-2.986a.388.388,0,0,0-.334-.434.392.392,0,0,0-.05,0H12.613V6.071C12.613,5.319,12.764,5,13.7,5h1.581a.388.388,0,0,0,.388-.387V1.945A.388.388,0,0,0,15.337,1.561ZM14.9,4.229H13.7c-1.673,0-1.867,1.051-1.867,1.842V7.978a.387.387,0,0,0,.387.388h2.517l-.285,2.21H12.225a.388.388,0,0,0-.388.387v5.986H9.529V10.963a.387.387,0,0,0-.387-.388H6.95V8.365H9.141a.387.387,0,0,0,.388-.387v-2.2a3.223,3.223,0,0,1,3.453-3.559c.782,0,1.489.042,1.917.08V4.229Z" transform="translate(-5.925 -1.19)" fill="#fff" stroke="#fff" stroke-width="0.5"/>
</svg>
