<svg xmlns="http://www.w3.org/2000/svg" width="40.603" height="33.636" viewBox="0 0 40.603 33.636">
  <g id="Group_19534" data-name="Group 19534" transform="translate(0 -44.825)">
    <g id="Group_19535" data-name="Group 19535" transform="translate(0 44.825)">
      <path id="Path_15014" data-name="Path 15014" d="M0,280.811H4.488v1.567c.962-.105,1.881.174,2.8-.237a15.431,15.431,0,0,1,6.67-1.555,6.408,6.408,0,0,1,4.529,1.717,10.672,10.672,0,0,1,1.375,1.925.562.562,0,0,0,.546.332c1.536-.014,3.074.018,4.61-.014a2.674,2.674,0,0,1,2.874,1.89c.138-.071.264-.132.387-.2q3.033-1.651,6.065-3.3a4.5,4.5,0,0,1,3.788-.357,4.793,4.793,0,0,1,2.475,2.1c-.118.077-.227.15-.338.22q-8.338,5.2-16.672,10.409a.779.779,0,0,1-.73.085q-7.031-2.236-14.069-4.45a2.865,2.865,0,0,0-.816-.122c-1.137-.013-2.275-.006-3.473-.006v1.526H0v-1.192H3.276V282H0Zm38.823,3.57a3.219,3.219,0,0,0-3.86-.43q-3.457,1.868-6.9,3.766a.715.715,0,0,0-.3.289,2.54,2.54,0,0,1-2.533,1.56c-2.49-.011-4.98,0-7.47,0-.139,0-.278-.011-.4-.017V288.37h1.531c2.159,0,4.318,0,6.477,0a1.312,1.312,0,1,0-.021-2.618c-1.854-.009-3.709-.013-5.563.006a.653.653,0,0,1-.714-.434,6.274,6.274,0,0,0-1.474-2.237,5.868,5.868,0,0,0-4.3-1.3,14.019,14.019,0,0,0-5.166,1.3,4.82,4.82,0,0,1-2.405.483c-.4-.031-.808-.005-1.2-.005v6.054h.459c1.046,0,2.093-.01,3.139.006a3.18,3.18,0,0,1,.892.139q6.829,2.148,13.651,4.319a.87.87,0,0,0,.808-.109q7.47-4.677,14.952-9.336c.122-.076.242-.156.4-.256" transform="translate(0 -261.806)" fill="#ca0e00"/>
      <path id="Path_15015" data-name="Path 15015" d="M123.078,44.832h.432q5.96,0,11.921-.007a.524.524,0,0,1,.585.375c.674,1.624,1.381,3.235,2.062,4.856a.474.474,0,0,0,.52.349c1.271-.018,2.543-.011,3.815-.007a2.98,2.98,0,0,1,3.178,3.034c.044,1.708.009,3.417.008,5.126a1.245,1.245,0,0,1-.031.18h-3.272a4.136,4.136,0,0,1-1.124,2.125,3.758,3.758,0,0,1-6.215-1.659c-.095-.358-.23-.471-.608-.468-2.238.021-4.477.01-6.715.01h-.452a4.085,4.085,0,0,1-1.124,2.121,3.76,3.76,0,0,1-6.2-1.632c-.106-.392-.254-.529-.664-.5-.59.043-1.185.011-1.759.011-.031-.062-.052-.084-.052-.107,0-1.8-.043-3.6.017-5.4a2.9,2.9,0,0,1,2.827-2.832c.066,0,.132-.005.2-.008.354-.016.8.09,1.036-.084.221-.16.226-.62.32-.95.431-1.5.86-3,1.3-4.533m-4.519,12.721h.506c.614,0,.614,0,.8-.6a3.786,3.786,0,0,1,6.184-1.52,4.092,4.092,0,0,1,1.128,2.12h.411c2.265,0,4.529-.007,6.794.007a.476.476,0,0,0,.562-.421,3.741,3.741,0,0,1,6.672-1.145,10.648,10.648,0,0,1,.759,1.537h2a1.178,1.178,0,0,0,.027-.169c0-1.311.024-2.623-.005-3.933a1.791,1.791,0,0,0-1.956-1.838q-10.965,0-21.931,0a1.794,1.794,0,0,0-1.952,1.917c-.011.688,0,1.377,0,2.066,0,.646,0,1.291,0,1.98m9.1-11.529V50.38h9.255c-.056-.148-.1-.271-.147-.389-.515-1.2-1.041-2.4-1.541-3.607a.5.5,0,0,0-.547-.368c-2.209.014-4.418.007-6.627.007ZM123.44,60.731a2.581,2.581,0,1,0-2.567-2.584,2.6,2.6,0,0,0,2.567,2.584m12.541-2.584a2.579,2.579,0,0,0,5.159.011,2.579,2.579,0,1,0-5.159-.011m-13.247-7.781H126.4V46.024c-.76,0-1.487-.007-2.212.009a.36.36,0,0,0-.265.2c-.4,1.365-.79,2.735-1.188,4.13" transform="translate(-108.017 -44.825)" fill="#ca0e00"/>
      <path id="Path_15022" data-name="Path 15022" d="M140.907,312.045l-.256-1.055a8.851,8.851,0,0,1,3.692-.22l-.194,1.042-3.242.233" transform="translate(-129.449 -289.488)" fill="#ca0e00"/>
      <path id="Path_15023" data-name="Path 15023" d="M111.545,320.414l-.443-1.1,1.148-.426.373,1.128-1.079.394" transform="translate(-102.253 -297.064)" fill="#ca0e00"/>
      <rect id="Rectangle_19055" data-name="Rectangle 19055" width="3.143" height="1.139" transform="translate(22.046 7.988)" fill="#ca0e00"/>
      <rect id="Rectangle_19056" data-name="Rectangle 19056" width="1.155" height="1.137" transform="translate(19.656 7.982)" fill="#ca0e00"/>
      <rect id="Rectangle_19057" data-name="Rectangle 19057" width="1.138" height="1.154" transform="translate(14.865 12.749)" fill="#ca0e00"/>
      <rect id="Rectangle_19058" data-name="Rectangle 19058" width="1.157" height="1.13" transform="translate(29.96 12.759)" fill="#ca0e00"/>
    </g>
  </g>
</svg>
