<svg xmlns="http://www.w3.org/2000/svg" width="17.865" height="17.865" viewBox="0 0 17.865 17.865">
  <path id="af2da8f3726c5aa836b9ea2eeab70e0c" d="M15.7,5.091h0a1.072,1.072,0,1,0,1.072,1.072A1.072,1.072,0,0,0,15.7,5.091Zm4.109,2.162A6.78,6.78,0,0,0,19.4,5.082,4.413,4.413,0,0,0,18.364,3.5a4.2,4.2,0,0,0-1.581-1.027,6.521,6.521,0,0,0-2.171-.42C13.666,2,13.362,2,10.932,2S8.2,2,7.252,2.054a6.521,6.521,0,0,0-2.171.42A4.27,4.27,0,0,0,3.5,3.5,4.2,4.2,0,0,0,2.473,5.082a6.521,6.521,0,0,0-.42,2.171C2,8.2,2,8.5,2,10.932s0,2.733.054,3.68a6.521,6.521,0,0,0,.42,2.171A4.2,4.2,0,0,0,3.5,18.364a4.27,4.27,0,0,0,1.581,1.027,6.521,6.521,0,0,0,2.171.42c.947.054,1.251.054,3.68.054s2.733,0,3.68-.054a6.521,6.521,0,0,0,2.171-.42,4.2,4.2,0,0,0,1.581-1.027A4.332,4.332,0,0,0,19.4,16.783a6.78,6.78,0,0,0,.411-2.171c0-.947.054-1.251.054-3.68S19.865,8.2,19.811,7.252ZM18.2,14.505a5.011,5.011,0,0,1-.3,1.661,2.733,2.733,0,0,1-.67,1.027,2.849,2.849,0,0,1-1.027.67,5.011,5.011,0,0,1-1.661.3c-.893.045-1.224.054-3.573.054s-2.68,0-3.573-.054A5.118,5.118,0,0,1,5.662,17.9a2.921,2.921,0,0,1-.983-.67A2.68,2.68,0,0,1,4.019,16.2a4.949,4.949,0,0,1-.357-1.7c0-.893-.054-1.224-.054-3.573s0-2.68.054-3.573a4.949,4.949,0,0,1,.313-1.7A2.68,2.68,0,0,1,4.68,4.68a2.8,2.8,0,0,1,.983-.715,5.118,5.118,0,0,1,1.7-.3c.893,0,1.224-.054,3.573-.054s2.68,0,3.573.054a5.011,5.011,0,0,1,1.661.3,2.733,2.733,0,0,1,1.063.715,2.733,2.733,0,0,1,.67.983,5.011,5.011,0,0,1,.3,1.7c.045.893.054,1.224.054,3.573S18.248,13.612,18.2,14.505ZM10.932,6.35a4.573,4.573,0,1,0,3.249,1.336A4.582,4.582,0,0,0,10.932,6.35Zm0,7.557a2.975,2.975,0,1,1,2.975-2.975,2.975,2.975,0,0,1-2.975,2.975Z" transform="translate(-2 -2)" fill="#fff"/>
</svg>
