<svg xmlns="http://www.w3.org/2000/svg" width="15.301" height="17" viewBox="0 0 15.301 17">
  <path id="location-pin" d="M9.8,10.416v4.335a.85.85,0,1,0,1.7,0V10.416a4.25,4.25,0,1,0-1.7,0ZM10.65,3.7A2.55,2.55,0,1,1,8.1,6.25,2.55,2.55,0,0,1,10.65,3.7Zm3.579,8.857a.869.869,0,0,0-.357,1.7C15.8,14.64,16.6,15.329,16.6,15.6c0,.493-2.083,1.7-5.95,1.7S4.7,16.094,4.7,15.6c0-.272.8-.961,2.729-1.377a.869.869,0,1,0-.357-1.7C4.488,13.119,3,14.232,3,15.6,3,17.836,6.851,19,10.65,19s7.65-1.165,7.65-3.4C18.3,14.232,16.813,13.119,14.229,12.558Z" transform="translate(-3 -2.001)" fill="#a8a8a8"/>
</svg>
