<svg xmlns="http://www.w3.org/2000/svg" width="23.401" height="26" viewBox="0 0 23.401 26">
  <path id="location-pin" d="M13.4,14.87V21.5a1.3,1.3,0,1,0,2.6,0V14.87a6.5,6.5,0,1,0-2.6,0ZM14.7,4.6a3.9,3.9,0,1,1-3.9,3.9,3.9,3.9,0,0,1,3.9-3.9Zm5.473,13.547a1.328,1.328,0,0,0-.546,2.6c2.951.585,4.173,1.638,4.173,2.054,0,.754-3.185,2.6-9.1,2.6s-9.1-1.846-9.1-2.6c0-.416,1.222-1.469,4.173-2.106a1.328,1.328,0,0,0-.546-2.6C5.275,19,3,20.708,3,22.8,3,26.22,8.889,28,14.7,28s11.7-1.781,11.7-5.2C26.4,20.708,24.126,19,20.174,18.147Z" transform="translate(-3 -2.001)" fill="#ca0e00"/>
</svg>
