<svg id="Group_19462" data-name="Group 19462" xmlns="http://www.w3.org/2000/svg" xmlns:xlink="http://www.w3.org/1999/xlink" width="166.039" height="37.324" viewBox="0 0 166.039 37.324">
  <defs>
    <clipPath id="clip-path">
      <rect id="Rectangle_19041" data-name="Rectangle 19041" width="166.039" height="37.324" fill="none"/>
    </clipPath>
  </defs>
  <g id="Group_19461" data-name="Group 19461" clip-path="url(#clip-path)">
    <path id="Path_14957" data-name="Path 14957" d="M178.184,93.664H166.34l5.758-15.82h11.844l-1.053,2.893h-8.883l-1.324,3.638h8.566l-1.012,2.78H171.67l-1.3,3.571h8.883Z" transform="translate(-122.112 -57.146)" fill="#fff"/>
    <path id="Path_14958" data-name="Path 14958" d="M176.89,92.962H164.2l6.048-16.618h12.693L181.6,80.035h-8.883l-1.034,2.841h8.566l-1.3,3.578h-8.566l-1.009,2.773h8.883Zm-11.554-.8h10.995l.779-2.14h-8.883l1.591-4.368h8.566l.721-1.982h-8.567l1.615-4.436h8.883l.763-2.1H170.8Z" transform="translate(-120.538 -56.045)" fill="#fff"/>
    <path id="Path_14959" data-name="Path 14959" d="M237.759,77.844h3.277l-.049.136-8.154,7.684,2.636,7.91-.033.09h-3.345l-1.883-5.944L224,93.664h-3.345l.033-.09,8.371-7.91-2.537-7.684.049-.136h3.277l1.808,5.9Z" transform="translate(-161.984 -57.146)" fill="#fff"/>
    <path id="Path_14960" data-name="Path 14960" d="M234.141,92.962h-3.916l-1.777-5.612-5.862,5.612h-4.076l.261-.714,8.255-7.8-2.5-7.575.192-.528h3.852l1.7,5.558,5.751-5.558h4.008l-.277.76-.069.065-7.968,7.51,2.6,7.8Zm-3.332-.8h2.563L230.8,84.447l7.752-7.306h-2.206l-6.454,6.239-1.913-6.239h-2.525l2.489,7.537-7.922,7.486h2.245l6.556-6.276Z" transform="translate(-160.409 -56.045)" fill="#fff"/>
    <path id="Path_14961" data-name="Path 14961" d="M295.426,88.946H290.95L289.256,93.6h-2.984l5.758-15.82c2.486,0,4.981-.023,7.467-.023,7.73,0,3.681,11.187-4.072,11.187m-3.48-2.734h4.475c3.82,0,5.837-5.6,2.04-5.6h-4.475Z" transform="translate(-210.155 -57.084)" fill="#fff"/>
    <path id="Path_14962" data-name="Path 14962" d="M287.963,92.9H284.13l6.049-16.618h.279c1.242,0,2.487-.006,3.732-.011s2.492-.011,3.736-.011a4.81,4.81,0,0,1,3.444,1.152,3.777,3.777,0,0,1,1.107,2.814c0,3.269-3.359,8.018-8.624,8.018h-4.2Zm-2.693-.8H287.4l1.695-4.656h4.755a7.949,7.949,0,0,0,7.826-7.221,3,3,0,0,0-.861-2.238,4.057,4.057,0,0,0-2.893-.931q-1.864,0-3.732.011-1.729.008-3.456.011Zm9.579-6.593H289.8l2.33-6.4h4.755a2.524,2.524,0,0,1,1.827.63,2.088,2.088,0,0,1,.6,1.542,4.586,4.586,0,0,1-4.469,4.23m-3.906-.8h3.906a3.8,3.8,0,0,0,3.672-3.432,1.334,1.334,0,0,0-.36-.971,1.771,1.771,0,0,0-1.271-.4h-4.2Z" transform="translate(-208.582 -55.982)" fill="#fff"/>
    <path id="Path_14963" data-name="Path 14963" d="M361.231,93.6h-3.549L355,88.313h-2.87L350.2,93.6h-2.984l5.766-15.843c2.509,0,5.01.023,7.519.023,3.721.023,4.783,2.508,3.787,5.243A7.516,7.516,0,0,1,358.479,88l2.826,5.4Zm-6.283-13.041L353.1,85.624h4.543a3.845,3.845,0,0,0,3.634-2.531c.461-1.266.085-2.532-1.791-2.532Z" transform="translate(-254.895 -57.084)" fill="#fff"/>
    <path id="Path_14964" data-name="Path 14964" d="M359.937,92.9h-4.073l-2.686-5.289h-2.346L348.907,92.9h-3.833l6.057-16.641h.279q1.883,0,3.762.011c1.252.005,2.5.011,3.757.011,2.29.014,3.392.912,3.915,1.662a4.432,4.432,0,0,1,.247,4.116,7.887,7.887,0,0,1-5.59,5.114l2.665,5.094Zm-3.583-.8h2.826L356.3,86.6l.529-.1a7.117,7.117,0,0,0,5.51-4.717,3.672,3.672,0,0,0-.153-3.388,3.8,3.8,0,0,0-3.262-1.32h0q-1.877,0-3.755-.011-1.738-.008-3.479-.011L346.213,92.1h2.135l1.925-5.289h3.395Zm-.279-7.18h-5.113l2.133-5.86h4.822a2.3,2.3,0,0,1,2.033.857,2.372,2.372,0,0,1,.133,2.209,4.228,4.228,0,0,1-4.009,2.793m-3.973-.8h3.973a3.436,3.436,0,0,0,3.259-2.269,1.639,1.639,0,0,0-.037-1.479,1.665,1.665,0,0,0-1.379-.517h-4.264Z" transform="translate(-253.322 -55.982)" fill="#fff"/>
    <path id="Path_14965" data-name="Path 14965" d="M419.579,93.664H407.735l5.758-15.82h11.844l-1.053,2.893H415.4l-1.324,3.638h8.566l-1.011,2.78h-8.566l-1.3,3.571h8.883Z" transform="translate(-299.322 -57.146)" fill="#fff"/>
    <path id="Path_14966" data-name="Path 14966" d="M418.286,92.962H405.593l6.049-16.618h12.693l-1.343,3.691h-8.883l-1.034,2.841h8.566l-1.3,3.578h-8.566l-1.009,2.773h8.883Zm-11.553-.8h11l.779-2.14h-8.883l1.59-4.368h8.566l.721-1.982h-8.566l1.615-4.436h8.883l.763-2.1H412.2Z" transform="translate(-297.749 -56.045)" fill="#fff"/>
    <path id="Path_14967" data-name="Path 14967" d="M481.263,80.166c-.214-.9-1.393-1.763-3.11-1.763-2.215,0-3.615.927-4.042,2.1-.5,1.379.986,1.763,2.8,1.989,3.152.407,5.913,1.266,4.539,5.04-1.283,3.526-4.953,5.04-8.479,5.04-3.232,0-5.356-.994-5.479-3.887l2.955-1.288c.067,1.74,1.618,2.509,3.54,2.509,1.876,0,3.877-.656,4.5-2.373.543-1.491-.794-2.1-2.814-2.328-3.092-.384-5.763-1.243-4.471-4.791,1.185-3.255,4.879-4.588,7.8-4.61,2.464,0,4.763.7,5.072,3.141Z" transform="translate(-343.191 -55.649)" fill="#fff"/>
    <path id="Path_14968" data-name="Path 14968" d="M471.84,91.872c-3.833,0-5.756-1.4-5.878-4.269l-.011-.273,3.741-1.631.023.584c.074,1.918,2.221,2.125,3.141,2.125.788,0,3.415-.152,4.128-2.111a.982.982,0,0,0-.012-.882c-.194-.312-.779-.723-2.473-.913-1.88-.233-3.912-.659-4.761-2.046a3.71,3.71,0,0,1-.041-3.278c1.213-3.332,4.98-4.849,8.175-4.873,4.156,0,5.269,1.9,5.471,3.49l.038.3-3.529,1.529-.11-.464c-.167-.706-1.178-1.456-2.722-1.456-1.85,0-3.255.7-3.668,1.84-.146.4-.037.58,0,.638.3.489,1.481.694,2.478.818,1.912.247,3.982.689,4.84,2.1a3.9,3.9,0,0,1,.025,3.472c-1.423,3.909-5.506,5.3-8.854,5.3m-5.062-4.033c.21,2.205,1.826,3.235,5.062,3.235,3.077,0,6.823-1.255,8.1-4.778a3.184,3.184,0,0,0,.043-2.784c-.683-1.123-2.536-1.5-4.259-1.724-1.512-.188-2.611-.463-3.058-1.193a1.478,1.478,0,0,1-.068-1.327c.53-1.458,2.223-2.365,4.417-2.365a3.653,3.653,0,0,1,3.332,1.631L482.5,77.6c-.359-1.659-1.914-2.5-4.627-2.5-2.916.022-6.347,1.375-7.428,4.348a2.942,2.942,0,0,0-.028,2.589c.676,1.1,2.586,1.473,4.174,1.67,1.655.185,2.628.593,3.057,1.284a1.742,1.742,0,0,1,.083,1.576c-.6,1.65-2.424,2.636-4.878,2.636-2.137,0-3.538-.86-3.867-2.33Z" transform="translate(-342.059 -54.548)" fill="#fff"/>
    <path id="Path_14969" data-name="Path 14969" d="M540.848,80.166c-.214-.9-1.393-1.763-3.11-1.763-2.215,0-3.615.927-4.042,2.1-.5,1.379.986,1.763,2.8,1.989,3.152.407,5.913,1.266,4.54,5.04-1.283,3.526-4.954,5.04-8.479,5.04-3.232,0-5.356-.994-5.479-3.887l2.955-1.288c.067,1.74,1.618,2.509,3.54,2.509,1.876,0,3.878-.656,4.5-2.373.543-1.491-.794-2.1-2.814-2.328-3.092-.384-5.763-1.243-4.472-4.791,1.185-3.255,4.879-4.588,7.8-4.61,2.463,0,4.763.7,5.072,3.141Z" transform="translate(-386.932 -55.649)" fill="#fff"/>
    <path id="Path_14970" data-name="Path 14970" d="M531.425,91.872c-3.833,0-5.756-1.4-5.878-4.269l-.011-.273,3.741-1.631.023.584c.074,1.918,2.221,2.125,3.141,2.125.788,0,3.415-.152,4.128-2.111a.981.981,0,0,0-.012-.882c-.193-.312-.779-.723-2.472-.913-1.88-.233-3.912-.659-4.761-2.046a3.71,3.71,0,0,1-.042-3.278c1.213-3.332,4.98-4.849,8.175-4.873,4.156,0,5.269,1.9,5.471,3.49l.038.3-3.529,1.529-.11-.464c-.167-.706-1.178-1.456-2.722-1.456-1.85,0-3.255.7-3.668,1.84-.146.4-.037.58,0,.638.3.489,1.481.694,2.478.818,1.913.247,3.982.689,4.84,2.1a3.9,3.9,0,0,1,.025,3.472c-1.423,3.909-5.507,5.3-8.854,5.3m-5.062-4.033c.21,2.205,1.826,3.235,5.062,3.235,3.077,0,6.823-1.255,8.1-4.778a3.184,3.184,0,0,0,.043-2.784c-.683-1.123-2.536-1.5-4.26-1.724-1.512-.188-2.611-.463-3.058-1.193a1.478,1.478,0,0,1-.068-1.327c.53-1.458,2.223-2.365,4.417-2.365a3.653,3.653,0,0,1,3.332,1.631l2.151-.932c-.359-1.659-1.914-2.5-4.627-2.5-2.916.022-6.347,1.375-7.429,4.348A2.943,2.943,0,0,0,530,82.04c.676,1.1,2.586,1.473,4.174,1.67,1.655.185,2.628.593,3.057,1.284a1.742,1.742,0,0,1,.083,1.576c-.6,1.65-2.424,2.636-4.877,2.636-2.137,0-3.539-.86-3.867-2.33Z" transform="translate(-385.8 -54.548)" fill="#fff"/>
    <path id="Path_14971" data-name="Path 14971" d="M61.918,19.36H59.387l-.157-4.972.145-4.995-3.485,5.04L52.177,19.36H49.645L49.594,3.539h3.345l-.424,11.413,8-11.413h1.944l-.2,11.413L70.027,3.539h3.345Z" transform="translate(-36.408 -2.598)" fill="#fff"/>
    <path id="Path_14972" data-name="Path 14972" d="M61.018,18.657H57.9L57.727,13.3l.106-3.673-2.718,3.933-3.843,5.1H48.143L48.09,2.039h4.159l-.39,10.477L59.2,2.039h2.557l-.182,10.484L68.712,2.039h4.337Zm-2.349-.8h1.942L71.487,2.837H69.134L60.73,15.18l.215-12.343H59.615l-8.653,12.35.459-12.35H48.89l.048,15.023h1.935l3.595-4.768,4.24-6.135L58.524,13.3Z" transform="translate(-35.303 -1.497)" fill="#fff"/>
    <path id="Path_14973" data-name="Path 14973" d="M138.455,19.445l2.328-6.4h-7.775l-2.328,6.4H127.7l5.758-15.821h2.984l-2.427,6.667h7.775l2.427-6.667h2.961l-5.758,15.821Z" transform="translate(-93.743 -2.661)" fill="#fff"/>
    <path id="Path_14974" data-name="Path 14974" d="M140.123,18.743h-3.81l2.328-6.4h-6.926l-2.328,6.4h-3.832L131.6,2.125h3.833l-2.427,6.667h6.926l2.427-6.667h3.81Zm-2.67-.8h2.111l5.468-15.023H142.92L140.493,9.59h-8.624L134.3,2.923h-2.135l-5.468,15.023h2.135l2.328-6.4h8.624Z" transform="translate(-92.17 -1.56)" fill="#fff"/>
    <path id="Path_14975" data-name="Path 14975" d="M215.863,10.667c-1.534,4.091-5.532,8.181-11.092,8.181s-6.681-4-5.167-8.159,5.7-8.34,11.172-8.34c5.447,0,6.638,4.181,5.087,8.317m-13.338.068c-.878,2.6-.488,5.379,3.241,5.379s6.151-2.8,7.142-5.4c1.016-2.667.61-5.65-3.119-5.65s-6.36,3.006-7.263,5.673" transform="translate(-146.079 -1.725)" fill="#fff"/>
    <path id="Path_14976" data-name="Path 14976" d="M203.657,18.146c-2.437,0-4.261-.765-5.275-2.213-1.115-1.591-1.209-3.893-.267-6.481,1.508-4.143,5.764-8.6,11.547-8.6,2.37,0,4.162.778,5.182,2.25,1.136,1.64,1.238,4.047.279,6.606-1.576,4.2-5.732,8.44-11.466,8.44m6-16.5c-5.4,0-9.381,4.187-10.8,8.077-.838,2.3-.776,4.4.171,5.751.87,1.243,2.425,1.873,4.621,1.873,5.351,0,9.239-3.979,10.719-7.923.866-2.31.8-4.45-.188-5.872-.864-1.247-2.429-1.907-4.526-1.907m-5.009,13.764a3.919,3.919,0,0,1-3.4-1.409c-.761-1.06-.838-2.657-.216-4.5h0c.969-2.863,3.774-5.943,7.641-5.943a3.8,3.8,0,0,1,3.382,1.465,5.159,5.159,0,0,1,.11,4.726c-1.591,4.172-4.925,5.658-7.514,5.658m-2.863-5.65a4.286,4.286,0,0,0,.108,3.775,3.184,3.184,0,0,0,2.755,1.077c3.545,0,5.821-2.658,6.769-5.145A4.469,4.469,0,0,0,211.4,5.48a3.088,3.088,0,0,0-2.725-1.12c-3.474,0-6,2.8-6.886,5.4" transform="translate(-144.965 -0.624)" fill="#fff"/>
    <path id="Path_14977" data-name="Path 14977" d="M272.127,3.54,267.373,16.6h8.137l-1,2.757h-11.12L269.144,3.54Z" transform="translate(-193.354 -2.598)" fill="#fff"/>
    <path id="Path_14978" data-name="Path 14978" d="M273.212,18.657H261.243l6.048-16.618h3.833L266.369,15.1h8.137Zm-10.83-.8h10.271l.713-1.96H265.23l4.755-13.063H267.85Z" transform="translate(-191.781 -1.497)" fill="#fff"/>
    <path id="Path_14979" data-name="Path 14979" d="M328.183,19.36H316.339L322.1,3.539h11.844l-1.053,2.893h-8.883l-1.324,3.639h8.566l-1.011,2.78h-8.566l-1.3,3.571h8.883Z" transform="translate(-232.227 -2.598)" fill="#fff"/>
    <path id="Path_14980" data-name="Path 14980" d="M326.889,18.657H314.2l6.049-16.618h12.693L331.594,5.73h-8.883l-1.034,2.841h8.566l-1.3,3.578h-8.566l-1.009,2.773h8.883Zm-11.553-.8h11l.779-2.14h-8.883l1.59-4.369h8.566l.721-1.982h-8.566l1.615-4.436h8.883l.763-2.1H320.8Z" transform="translate(-230.654 -1.497)" fill="#fff"/>
    <path id="Path_14981" data-name="Path 14981" d="M389.867,5.863c-.214-.9-1.393-1.763-3.11-1.763-2.215,0-3.615.927-4.042,2.1-.5,1.379.986,1.763,2.8,1.989,3.152.407,5.913,1.266,4.54,5.04-1.283,3.525-4.954,5.04-8.48,5.04-3.232,0-5.356-.994-5.479-3.887l2.955-1.288c.067,1.74,1.618,2.509,3.54,2.509,1.876,0,3.877-.656,4.5-2.373.543-1.492-.794-2.1-2.814-2.328-3.092-.384-5.763-1.243-4.471-4.791,1.185-3.255,4.879-4.588,7.8-4.61,2.463,0,4.763.7,5.072,3.141Z" transform="translate(-276.096 -1.102)" fill="#fff"/>
    <path id="Path_14982" data-name="Path 14982" d="M380.444,17.567c-3.833,0-5.756-1.4-5.878-4.269l-.011-.273,3.741-1.631.023.584c.074,1.918,2.221,2.125,3.141,2.125.788,0,3.415-.152,4.128-2.111a.982.982,0,0,0-.012-.882c-.194-.312-.779-.723-2.473-.913-1.88-.234-3.912-.659-4.761-2.046a3.71,3.71,0,0,1-.041-3.278c1.213-3.332,4.98-4.848,8.175-4.873,4.156,0,5.269,1.9,5.471,3.49l.038.3-3.529,1.529-.11-.463c-.167-.706-1.178-1.456-2.722-1.456-1.85,0-3.255.7-3.668,1.84-.146.4-.037.58,0,.638.3.489,1.481.694,2.478.818,1.913.247,3.982.689,4.841,2.1a3.9,3.9,0,0,1,.025,3.472c-1.423,3.909-5.507,5.3-8.854,5.3m-5.062-4.033c.21,2.205,1.826,3.235,5.062,3.235,3.077,0,6.823-1.255,8.105-4.778a3.184,3.184,0,0,0,.043-2.784c-.683-1.122-2.536-1.5-4.26-1.724-1.512-.188-2.611-.463-3.058-1.193a1.478,1.478,0,0,1-.068-1.327c.53-1.458,2.223-2.365,4.417-2.365a3.652,3.652,0,0,1,3.332,1.631l2.151-.932c-.359-1.66-1.914-2.5-4.627-2.5-2.916.023-6.347,1.375-7.428,4.348a2.941,2.941,0,0,0-.028,2.589c.676,1.1,2.586,1.473,4.174,1.67,1.655.185,2.628.593,3.057,1.284a1.742,1.742,0,0,1,.083,1.576c-.6,1.65-2.424,2.636-4.877,2.636-2.136,0-3.538-.86-3.867-2.33Z" transform="translate(-274.964)" fill="#fff"/>
    <path id="Path_14983" data-name="Path 14983" d="M442.144,16.377h-8.273l-2.442,2.983H428.2L441.053,3.54h3.255l1.339,15.82h-3.255Zm-.673-9.515-5.39,6.735h5.877Z" transform="translate(-314.343 -2.599)" fill="#fff"/>
    <path id="Path_14984" data-name="Path 14984" d="M443.767,18.658h-4.056l-.247-2.983h-7.717l-2.442,2.983h-4.259L438.55,2.04h3.811Zm-3.322-.8H442.9L441.628,2.838h-2.7L426.722,17.86h2.205l2.442-2.983H440.2Zm-.372-4.965h-7.135l6.544-8.177Zm-5.475-.8h4.618L438.833,6.8Z" transform="translate(-312.03 -1.498)" fill="#fff"/>
    <path id="Path_14985" data-name="Path 14985" d="M511.908,3.54,507.153,16.6h8.137l-1,2.757h-11.12L508.924,3.54Z" transform="translate(-369.378 -2.598)" fill="#fff"/>
    <path id="Path_14986" data-name="Path 14986" d="M512.992,18.657H501.023l6.048-16.618H510.9L506.149,15.1h8.137Zm-10.83-.8h10.271l.713-1.96H505.01l4.755-13.063H507.63Z" transform="translate(-367.805 -1.497)" fill="#fff"/>
    <path id="Path_14987" data-name="Path 14987" d="M567.964,19.36H556.12l5.758-15.821h11.844l-1.053,2.893h-8.883l-1.324,3.639h8.566l-1.011,2.78H561.45l-1.3,3.571h8.883Z" transform="translate(-408.252 -2.598)" fill="#fff"/>
    <path id="Path_14988" data-name="Path 14988" d="M566.67,18.657H553.977l6.049-16.618h12.692L571.375,5.73h-8.883l-1.034,2.841h8.566l-1.3,3.578h-8.567l-1.009,2.773h8.883Zm-11.553-.8h11l.779-2.14h-8.883l1.59-4.369h8.566l.721-1.982h-8.566l1.615-4.436h8.883l.762-2.1H560.584Z" transform="translate(-406.679 -1.497)" fill="#fff"/>
    <g id="Group_19521" data-name="Group 19521">
      <g id="Group_19550" data-name="Group 19550">
        <path id="Path_14989" data-name="Path 14989" d="M59.783,76.406H18.975l-1.323,3.647H58.46Z" transform="translate(-12.959 -56.09)" fill="#c1031b"/>
        <path id="Path_14990" data-name="Path 14990" d="M50.886,100.814H10.078l-1.323,3.647H49.562Z" transform="translate(-6.427 -74.008)" fill="#c1031b"/>
        <path id="Path_14991" data-name="Path 14991" d="M42.131,125.006H1.323L0,128.653H40.808Z" transform="translate(0 -91.768)" fill="#c1031b"/>
      </g>
    </g>
  </g>
</svg>
