<svg xmlns="http://www.w3.org/2000/svg" width="22.3" height="16.014" viewBox="0 0 22.3 16.014">
  <g id="mail_2_" data-name="mail (2)" transform="translate(-1.85 -5.85)">
    <path id="Path_165" data-name="Path 165" d="M21.643,21.714H4.357A2.357,2.357,0,0,1,2,19.357v-11A2.357,2.357,0,0,1,4.357,6H21.643A2.357,2.357,0,0,1,24,8.357v11A2.357,2.357,0,0,1,21.643,21.714ZM4.357,7.571a.786.786,0,0,0-.786.786v11a.786.786,0,0,0,.786.786H21.643a.786.786,0,0,0,.786-.786v-11a.786.786,0,0,0-.786-.786Z" transform="translate(0)" fill="#ca0e00" stroke="#ca0e00" stroke-width="0.3"/>
    <path id="Path_166" data-name="Path 166" d="M13.231,14.868a.786.786,0,0,1-.432-.134L3.37,8.449a.786.786,0,0,1,.864-1.3l9.429,6.286a.786.786,0,0,1-.432,1.438Z" transform="translate(-0.231 -0.225)" fill="#ca0e00" stroke="#ca0e00" stroke-width="0.3"/>
    <path id="Path_167" data-name="Path 167" d="M15.785,14.864a.786.786,0,0,1-.44-1.438L24.774,7.14a.786.786,0,0,1,.872,1.3L16.217,14.73A.786.786,0,0,1,15.785,14.864Z" transform="translate(-2.785 -0.221)" fill="#ca0e00" stroke="#ca0e00" stroke-width="0.3"/>
  </g>
</svg>
