<svg xmlns="http://www.w3.org/2000/svg" width="19" height="13.571" viewBox="0 0 19 13.571">
  <g id="mail_2_" data-name="mail (2)" transform="translate(-2 -6)">
    <path id="Path_165" data-name="Path 165" d="M18.964,19.571H4.036A2.036,2.036,0,0,1,2,17.536v-9.5A2.036,2.036,0,0,1,4.036,6H18.964A2.036,2.036,0,0,1,21,8.036v9.5A2.036,2.036,0,0,1,18.964,19.571ZM4.036,7.357a.679.679,0,0,0-.679.679v9.5a.679.679,0,0,0,.679.679H18.964a.679.679,0,0,0,.679-.679v-9.5a.679.679,0,0,0-.679-.679Z" fill="#a8a8a8"/>
    <path id="Path_166" data-name="Path 166" d="M11.846,13.8a.679.679,0,0,1-.373-.115L3.33,8.258a.679.679,0,0,1,.746-1.126l8.143,5.429a.679.679,0,0,1-.373,1.242Z" transform="translate(-0.346 -0.338)" fill="#a8a8a8"/>
    <path id="Path_167" data-name="Path 167" d="M15.678,13.8a.679.679,0,0,1-.38-1.242l8.143-5.429a.679.679,0,0,1,.753,1.126L16.051,13.68A.679.679,0,0,1,15.678,13.8Z" transform="translate(-4.178 -0.331)" fill="#a8a8a8"/>
  </g>
</svg>
