<svg id="Component_72_1" data-name="Component 72 – 1" xmlns="http://www.w3.org/2000/svg" width="36" height="36" viewBox="0 0 36 36">
  <g id="Ellipse_20" data-name="Ellipse 20" fill="none" stroke="#ca0e00" stroke-width="1">
    <circle cx="18" cy="18" r="18" stroke="none"/>
    <circle cx="18" cy="18" r="17.5" fill="none"/>
  </g>
  <path id="af2da8f3726c5aa836b9ea2eeab70e0c" d="M14.17,4.745h0a.952.952,0,1,0,.952.952A.952.952,0,0,0,14.17,4.745Zm3.649,1.92a6.021,6.021,0,0,0-.365-1.928,3.919,3.919,0,0,0-.92-1.4,3.729,3.729,0,0,0-1.4-.912A5.791,5.791,0,0,0,13.2,2.048C12.361,2,12.091,2,9.933,2s-2.428,0-3.269.048a5.791,5.791,0,0,0-1.928.373,3.792,3.792,0,0,0-1.4.912,3.729,3.729,0,0,0-.912,1.4,5.791,5.791,0,0,0-.373,1.928C2,7.506,2,7.776,2,9.933s0,2.428.048,3.269A5.791,5.791,0,0,0,2.42,15.13a3.729,3.729,0,0,0,.912,1.4,3.792,3.792,0,0,0,1.4.912,5.791,5.791,0,0,0,1.928.373c.841.048,1.111.048,3.269.048s2.428,0,3.269-.048a5.791,5.791,0,0,0,1.928-.373,3.729,3.729,0,0,0,1.4-.912,3.848,3.848,0,0,0,.92-1.4,6.021,6.021,0,0,0,.365-1.928c0-.841.048-1.111.048-3.269S17.867,7.506,17.819,6.665Zm-1.428,6.442a4.451,4.451,0,0,1-.27,1.476,2.428,2.428,0,0,1-.6.912,2.531,2.531,0,0,1-.912.6,4.451,4.451,0,0,1-1.476.27c-.793.04-1.087.048-3.173.048s-2.38,0-3.173-.048a4.546,4.546,0,0,1-1.539-.238,2.594,2.594,0,0,1-.873-.6,2.38,2.38,0,0,1-.587-.912,4.4,4.4,0,0,1-.317-1.507c0-.793-.048-1.087-.048-3.173s0-2.38.048-3.173a4.4,4.4,0,0,1,.278-1.507A2.38,2.38,0,0,1,4.38,4.38a2.491,2.491,0,0,1,.873-.635,4.546,4.546,0,0,1,1.507-.27c.793,0,1.087-.048,3.173-.048s2.38,0,3.173.048a4.451,4.451,0,0,1,1.476.27,2.428,2.428,0,0,1,.944.635,2.428,2.428,0,0,1,.6.873,4.451,4.451,0,0,1,.27,1.507c.04.793.048,1.087.048,3.173S16.431,12.313,16.391,13.107ZM9.933,5.864A4.062,4.062,0,1,0,12.819,7.05,4.07,4.07,0,0,0,9.933,5.864Zm0,6.712a2.642,2.642,0,1,1,2.642-2.642,2.642,2.642,0,0,1-2.642,2.642Z" transform="translate(8.243 7.77)" fill="#ca0e00"/>
</svg>
