<svg id="Component_71_1" data-name="Component 71 – 1" xmlns="http://www.w3.org/2000/svg" width="36" height="36" viewBox="0 0 36 36">
  <g id="Ellipse_19" data-name="Ellipse 19" fill="none" stroke="#ca0e00" stroke-width="1">
    <circle cx="18" cy="18" r="18" stroke="none"/>
    <circle cx="18" cy="18" r="17.5" fill="none"/>
  </g>
  <path id="_0166e76c8b03227d1a839e7b916e2413" data-name="0166e76c8b03227d1a839e7b916e2413" d="M14.312,1.547A19.271,19.271,0,0,0,12.22,1.44,3.529,3.529,0,0,0,8.465,5.29V6.9H6.519a.344.344,0,0,0-.344.344V9.9a.344.344,0,0,0,.344.344H8.465v5.316a.344.344,0,0,0,.344.344h2.74a.344.344,0,0,0,.344-.344V10.243h1.94a.345.345,0,0,0,.342-.3l.342-2.652a.344.344,0,0,0-.3-.386l-.045,0H11.893V5.553c0-.668.135-.947.97-.947h1.4a.344.344,0,0,0,.344-.344V1.889A.345.345,0,0,0,14.312,1.547Zm-.389,2.369h-1.06c-1.486,0-1.658.933-1.658,1.636V7.246a.344.344,0,0,0,.344.344h2.235L13.53,9.554H11.548A.344.344,0,0,0,11.2,9.9v5.316H9.153V9.9a.344.344,0,0,0-.344-.344H6.863V7.591H8.809a.344.344,0,0,0,.344-.344V5.29A2.862,2.862,0,0,1,12.22,2.129c.695,0,1.322.038,1.7.071V3.917Z" transform="translate(7.592 8.773)" fill="#ca0e00" stroke="#ca0e00" stroke-width="0.5"/>
</svg>
