<svg id="Component_73_1" data-name="Component 73 – 1" xmlns="http://www.w3.org/2000/svg" width="35" height="36" viewBox="0 0 35 36">
  <g id="Ellipse_18" data-name="Ellipse 18" fill="none" stroke="#ca0e00" stroke-width="1">
    <ellipse cx="17.5" cy="18" rx="17.5" ry="18" stroke="none"/>
    <ellipse cx="17.5" cy="18" rx="17" ry="17.5" fill="none"/>
  </g>
  <g id="Group_19661" data-name="Group 19661" transform="translate(0.502 0.749)">
    <path id="Path_15208" data-name="Path 15208" d="M182.07,160.632l-4.269,0h-.223V160.4q0-3.009,0-6.019a1.166,1.166,0,0,0-.441-1,1.116,1.116,0,0,0-1.794.792c-.008.089-.008.179-.008.269q0,2.984,0,5.968v.209h-4.486V149.038h4.483v.732c.107-.068.184-.121.264-.167a4.04,4.04,0,0,1,3.85-.191,4.279,4.279,0,0,1,2.507,3.03c.054.216.077.439.114.659Zm-.753-.764c0-.053.007-.086.007-.119,0-2.1.022-4.2-.007-6.3a3.507,3.507,0,0,0-2.158-3.343,3.187,3.187,0,0,0-3.278.223,8.31,8.31,0,0,0-1,.917c-.095.09-.178.193-.267.29l-.038-.016V149.78H171.6v10.087h2.98c0-.083,0-.155,0-.227,0-1.765,0-3.53,0-5.3a1.875,1.875,0,1,1,3.746.007q0,2.656,0,5.312v.2Z" transform="translate(-156.465 -134.958)" fill="#ca0e00" stroke="#ca0e00" stroke-width="0.2"/>
    <path id="Path_15209" data-name="Path 15209" d="M.221,149.578h4.47v11.583H.221Zm.744,10.833H3.938V150.32H.965Z" transform="translate(8.178 -135.502)" fill="#ca0e00" stroke="#ca0e00" stroke-width="0.2"/>
    <path id="Path_15210" data-name="Path 15210" d="M4.489,2.263A2.244,2.244,0,1,1,2.316,0,2.247,2.247,0,0,1,4.489,2.263m-.752-.018A1.5,1.5,0,0,0,2.243.745a1.516,1.516,0,0,0-1.5,1.5,1.495,1.495,0,0,0,2.99,0" transform="translate(8.391 8.828)" fill="#ca0e00" stroke="#ca0e00" stroke-width="0.2"/>
  </g>
</svg>
