<svg xmlns="http://www.w3.org/2000/svg" width="16.896" height="16.926" viewBox="0 0 16.896 16.926">
  <path id="Icon_feather-phone-call" data-name="Icon feather-phone-call" d="M12.655,4.433a3.666,3.666,0,0,1,2.9,2.9m-2.9-5.83a6.6,6.6,0,0,1,5.83,5.822m-.733,5.852v2.2a1.467,1.467,0,0,1-1.6,1.467,14.512,14.512,0,0,1-6.328-2.251,14.3,14.3,0,0,1-4.4-4.4A14.512,14.512,0,0,1,3.174,3.832a1.467,1.467,0,0,1,1.459-1.6h2.2A1.467,1.467,0,0,1,8.3,3.495a9.415,9.415,0,0,0,.513,2.061A1.467,1.467,0,0,1,8.483,7.1l-.931.931a11.733,11.733,0,0,0,4.4,4.4l.931-.931a1.467,1.467,0,0,1,1.547-.33,9.415,9.415,0,0,0,2.061.513A1.467,1.467,0,0,1,17.751,13.174Z" transform="translate(-2.417 -0.672)" fill="none" stroke="#a8a8a8" stroke-linecap="round" stroke-linejoin="round" stroke-width="1.5"/>
</svg>
