<svg id="Component_61_3" data-name="Component 61 – 3" xmlns="http://www.w3.org/2000/svg" width="40" height="40" viewBox="0 0 40 40">
  <circle id="Ellipse_121" data-name="Ellipse 121" cx="20" cy="20" r="20" fill="#066492"/>
  <g id="da6195985f5ffa1c15b90147f61b9269" transform="translate(11 11)">
    <path id="Path_686" data-name="Path 686" d="M0,5H4.025V18H0Zm14.99.152c-.043-.014-.083-.03-.128-.043s-.108-.024-.163-.033A3.441,3.441,0,0,0,13.976,5,5.549,5.549,0,0,0,9.65,7.485V5H5.625V18H9.65V10.909s3.042-4.451,4.326-1.182V18H18V9.227a4.185,4.185,0,0,0-3.011-4.075Z" fill="#fff"/>
    <circle id="Ellipse_119" data-name="Ellipse 119" cx="1.75" cy="1.75" r="1.75" fill="#fff"/>
  </g>
</svg>
