<svg id="Component_62_3" data-name="Component 62 – 3" xmlns="http://www.w3.org/2000/svg" width="40" height="40" viewBox="0 0 40 40">
  <circle id="Ellipse_171" data-name="Ellipse 171" cx="20" cy="20" r="20" fill="#c23321"/>
  <g id="Icon_ionic-logo-googleplus" data-name="Icon ionic-logo-googleplus" transform="translate(7.701 12.169)">
    <path id="Path_801" data-name="Path 801" d="M15.287,13.164l-.077-.336H7.687v3.08h4.357A3.9,3.9,0,0,1,8,18.963a4.607,4.607,0,0,1-3.281-1.215,4.846,4.846,0,0,1-.062-6.726,4.531,4.531,0,0,1,3.3-1.22,4.159,4.159,0,0,1,2.791,1.014l2.306-2.292A7.808,7.808,0,0,0,7.884,6.539h0a7.967,7.967,0,0,0-5.655,2.3A7.974,7.974,0,0,0,0,14.37a7.88,7.88,0,0,0,2.143,5.443,8.186,8.186,0,0,0,5.9,2.388,7.286,7.286,0,0,0,5.3-2.224,7.8,7.8,0,0,0,2.037-5.414A9.006,9.006,0,0,0,15.287,13.164Z" transform="translate(0 -6.539)" fill="#fff"/>
    <path id="Path_802" data-name="Path 802" d="M32.548,14.481H29.81V11.742H27.84v2.738H25.1v1.97H27.84v2.738h1.97V16.45h2.738Z" transform="translate(-7.95 -8.187)" fill="#fff"/>
  </g>
</svg>
