<svg id="Component_60_3" data-name="Component 60 – 3" xmlns="http://www.w3.org/2000/svg" width="40" height="40" viewBox="0 0 40 40">
  <circle id="Ellipse_120" data-name="Ellipse 120" cx="20" cy="20" r="20" fill="#00aced"/>
  <path id="_48da478fa6ca63ab6d70df54a8edf0ac" data-name="48da478fa6ca63ab6d70df54a8edf0ac" d="M21.869,5.787a8.434,8.434,0,0,1-2.344.636,4.1,4.1,0,0,0,1.8-2.255,8.156,8.156,0,0,1-2.593.993,4.073,4.073,0,0,0-6.954,3.715A11.564,11.564,0,0,1,3.381,4.615a4.133,4.133,0,0,0-.546,2.056,4.063,4.063,0,0,0,1.808,3.388,4.023,4.023,0,0,1-1.848-.507V9.6a4.073,4.073,0,0,0,3.278,3.974,3.9,3.9,0,0,1-1.093.169,4.868,4.868,0,0,1-.765-.07A4.083,4.083,0,0,0,8.02,16.5a8.166,8.166,0,0,1-5.027,1.748A7.879,7.879,0,0,1,2,18.185a11.494,11.494,0,0,0,6.249,1.838A11.514,11.514,0,0,0,19.882,8.42V7.893A8.375,8.375,0,0,0,21.869,5.787Z" transform="translate(8.066 8.063)" fill="#fff"/>
</svg>
