<svg xmlns="http://www.w3.org/2000/svg" width="17.263" height="14.685" viewBox="0 0 17.263 14.685">
  <path id="d541cbb61d8b28b546aec1d396c3e912" d="M18.248,3.668a.784.784,0,0,0-1.185-.674,5.867,5.867,0,0,1-1.469.622,4.041,4.041,0,0,0-2.647-.974,4.1,4.1,0,0,0-4.1,3.972A8.653,8.653,0,0,1,3.505,3.536a.793.793,0,0,0-.673-.287.783.783,0,0,0-.616.392,4.138,4.138,0,0,0-.19,3.74l0,0a.817.817,0,0,0-.388.7,2.386,2.386,0,0,0,.021.345,4.067,4.067,0,0,0,1.23,2.6.783.783,0,0,0-.052.6,4.082,4.082,0,0,0,1.853,2.292,5.855,5.855,0,0,1-2.816.352.784.784,0,0,0-.522,1.438,10.152,10.152,0,0,0,5.5,1.617,10.031,10.031,0,0,0,9.777-7.345,10.057,10.057,0,0,0,.42-2.86c0-.051,0-.1,0-.157a4.526,4.526,0,0,0,1.2-3.3ZM15.654,6.187a.78.78,0,0,0-.183.551c.008.129.007.26.007.382a8.49,8.49,0,0,1-.356,2.417A8.381,8.381,0,0,1,6.85,15.757a8.58,8.58,0,0,1-2-.236,7.436,7.436,0,0,0,2.308-1.226.785.785,0,0,0-.472-1.4,2.516,2.516,0,0,1-1.737-.733q.176-.033.349-.083a.785.785,0,0,0-.063-1.524A2.509,2.509,0,0,1,3.47,9.2a4.157,4.157,0,0,0,.427.036.8.8,0,0,0,.771-.546A.784.784,0,0,0,4.355,7.8,2.507,2.507,0,0,1,3.238,5.7c0-.052,0-.1,0-.156A10.208,10.208,0,0,0,9.682,8.275a.8.8,0,0,0,.641-.281.785.785,0,0,0,.162-.681,2.476,2.476,0,0,1-.068-.571A2.534,2.534,0,0,1,12.947,4.21a2.5,2.5,0,0,1,1.839.8.779.779,0,0,0,.722.234,7.272,7.272,0,0,0,.951-.253,5.241,5.241,0,0,1-.805,1.2Z" transform="translate(-0.991 -2.642)" fill="#fff"/>
</svg>
