<svg xmlns="http://www.w3.org/2000/svg" xmlns:xlink="http://www.w3.org/1999/xlink" width="33.23" height="25.734" viewBox="0 0 33.23 25.734">
  <defs>
    <clipPath id="clip-path">
      <rect id="Rectangle_19123" data-name="Rectangle 19123" width="12.716" height="11.663" fill="#ca0e00"/>
    </clipPath>
  </defs>
  <g id="Group_19648" data-name="Group 19648" transform="translate(-153.692 -1430.7)">
    <g id="Group_19646" data-name="Group 19646" transform="translate(154 1431)">
      <path id="Path_15207" data-name="Path 15207" d="M.1,12.416c-.694,5.208,2.236,9.934,6.971,11.24a42.062,42.062,0,0,0,11.273,1.477c.816,0,1.641-.024,2.473-.065a12.407,12.407,0,0,0,2.22-.327,12.646,12.646,0,0,0,9.575-12.726.328.328,0,0,0-.024-.122A12.575,12.575,0,0,0,20.05,0h-.032C13.291.017,8.508,1.634,5.308,3.984A12.536,12.536,0,0,0,.1,12.416Zm7.575,8.442c-3.3-.912-5.321-4.287-4.816-8.022.646-4.792,5.526-9.92,17.288-9.946a9.7,9.7,0,0,1,9.671,9.266l.016.395a9.769,9.769,0,0,1-9.061,9.637h0c-.745.038-1.527.058-2.388.058A40.57,40.57,0,0,1,7.675,20.858Z" transform="translate(0 -0.001)" fill="#ca0e00" stroke="#eee" stroke-width="0.6"/>
    </g>
    <g id="Group_19647" data-name="Group 19647" transform="translate(164 1437.837)">
      <g id="Group_19641" data-name="Group 19641" clip-path="url(#clip-path)">
        <path id="Path_15205" data-name="Path 15205" d="M4.085,6.637c.156-.2.308-.387.462-.577A32.3,32.3,0,0,1,9.605.985c.4-.315.822-.6,1.24-.892a.554.554,0,0,1,.289-.087c.42-.009.84,0,1.26,0a.286.286,0,0,1,.2.514,32.151,32.151,0,0,0-4.234,4.9,71.81,71.81,0,0,0-3.938,6.028.513.513,0,0,1-.218.2.243.243,0,0,1-.31-.13C2.723,9.6,1.4,7.786.081,5.965a.291.291,0,0,1,.042-.438Q.5,5.147.888,4.77a.3.3,0,0,1,.461-.04L3.96,6.553c.038.027.077.052.125.084" transform="translate(0 0)" fill="#ca0e00"/>
      </g>
    </g>
  </g>
</svg>
